# xmcd
# 
# Track frame offsets:
#     150
#     13586
#     21845
#     33130
#     42121
#     55065
#     66264
#     74482
#     85621
#     99877
#     116237
#     128598
#     139557
#     150658
#     161706
#     169957
#     179407
#     190671
#     201214
#     211380
#     221752
#     232033
#     242081
#     256018
# 
# Disc length: 3595
# 
# Revision: 1
# Processed by: cddbd v1.5.2PL0 Copyright (c) Steve Scherf et al.
# Submitted via: fre:ac v1.0.17
# 
DISCID=4a0e0918
DTITLE=Marty Robbins - The Essential Marty Robbins [CD2 Of 2]
DYEAR=2009
DGENRE=Country
TTITLE0=Song Of The Islands
TTITLE1=Don't Sing Aloha When I Go
TTITLE2=Beyond The Reef
TTITLE3=Crying Steel Guitar Waltz
TTITLE4=My Isle Of Golden Dreams
TTITLE5=Now Is The Hour
TTITLE6=Sweet Leilani
TTITLE7=Down Where The Trade Winds Blow
TTITLE8=Constancy
TTITLE9=Island Echoes
TTITLE10=Moonland
TTITLE11=Aloha Oe (Farewell To Thee)
TTITLE12=Kaw-Liga
TTITLE13=Judy
TTITLE14=Nothing But Sweet Lies
TTITLE15=Oh How I Miss You (Since You Went Away)
TTITLE16=Baby I Need You (Like You Need Me)
TTITLE17=Shackles And Chains
TTITLE18=Waltz Of The Mind
TTITLE19=Paper Face
TTITLE20=Then I Turned And Walked Slowly Away
TTITLE21=Wedding Bells
TTITLE22=A House With Everything But Love
TTITLE23=The Hands You're Holding Now
EXTD=
EXTT0=
EXTT1=
EXTT2=
EXTT3=
EXTT4=
EXTT5=
EXTT6=
EXTT7=
EXTT8=
EXTT9=
EXTT10=
EXTT11=
EXTT12=
EXTT13=
EXTT14=
EXTT15=
EXTT16=
EXTT17=
EXTT18=
EXTT19=
EXTT20=
EXTT21=
EXTT22=
EXTT23=
PLAYORDER=
